<?xml version="1.0" standalone="no"?>
<!DOCTYPE svg PUBLIC "-//W3C//DTD SVG 20010904//EN"
 "http://www.w3.org/TR/2001/REC-SVG-20010904/DTD/svg10.dtd">
<svg version="1.0" xmlns="http://www.w3.org/2000/svg"
 width="580.000000pt" height="386.000000pt" viewBox="0 0 580.000000 386.000000"
 preserveAspectRatio="xMidYMid meet">

<g transform="translate(0.000000,386.000000) scale(0.100000,-0.100000)"
fill="#000000" stroke="none">
<path d="M3553 3083 c-4 -10 -25 -43 -49 -73 -50 -66 -76 -116 -98 -189 -17
-59 -22 -141 -7 -141 5 0 8 14 6 32 -3 43 17 124 44 182 33 66 107 163 131
169 11 3 20 12 20 21 0 22 -39 21 -47 -1z"/>
<path d="M3637 3084 c-4 -4 -7 -15 -7 -24 0 -9 -9 -25 -20 -35 -66 -60 -141
-224 -138 -305 1 -32 2 -36 5 -15 6 49 33 136 55 180 32 64 97 145 124 156 16
6 24 15 22 26 -3 19 -29 29 -41 17z"/>
<path d="M2816 2775 c-110 -112 -177 -231 -218 -384 -51 -192 -10 -492 75
-545 19 -12 237 -32 237 -22 0 2 -13 32 -29 67 -44 97 -70 191 -77 278 -16
193 75 410 241 574 l65 65 -32 11 c-17 6 -68 14 -114 17 l-82 7 -66 -68z"/>
<path d="M2441 2755 c-105 -53 -138 -92 -178 -208 -47 -140 -69 -389 -40 -447
11 -23 175 -155 182 -148 2 2 -5 35 -16 73 -14 50 -20 102 -20 180 -1 174 39
328 134 509 24 47 41 86 37 86 -5 0 -49 -20 -99 -45z"/>
<path d="M3177 2711 c-117 -124 -170 -251 -171 -406 0 -146 66 -320 148 -393
40 -35 53 -34 144 12 l52 26 -35 35 c-123 124 -172 296 -130 455 20 75 76 186
125 248 45 57 44 59 -32 80 -37 10 -37 10 -101 -57z"/>
<path d="M2059 2391 c-24 -28 -52 -64 -63 -81 l-18 -31 35 6 c25 5 42 2 61
-10 l26 -17 -6 43 c-3 24 -1 64 5 89 5 24 8 46 7 48 -2 1 -23 -20 -47 -47z"/>
<path d="M3376 2397 c-15 -11 -12 -12 24 -12 36 0 39 1 24 12 -10 7 -21 13
-24 13 -3 0 -14 -6 -24 -13z"/>
<path d="M3546 2392 c-3 -5 10 -8 29 -8 18 1 31 4 28 9 -6 10 -51 9 -57 -1z"/>
<path d="M3400 2340 c0 -5 5 -10 10 -10 6 0 10 5 10 10 0 6 -4 10 -10 10 -5 0
-10 -4 -10 -10z"/>
<path d="M3580 2339 c0 -5 5 -7 10 -4 6 3 10 8 10 11 0 2 -4 4 -10 4 -5 0 -10
-5 -10 -11z"/>
<path d="M3440 2321 c0 -14 50 -51 70 -51 16 0 57 36 49 44 -11 10 -119 17
-119 7z"/>
<path d="M4090 1606 c-45 -9 -55 -15 -52 -28 2 -10 12 -18 22 -18 25 0 34 -62
28 -185 -4 -76 -11 -105 -35 -157 -50 -107 -138 -171 -211 -153 -38 9 -80 61
-97 118 -16 53 -20 170 -9 251 6 39 10 47 25 43 20 -5 36 23 18 33 -6 4 -36
10 -67 14 -31 4 -66 9 -79 12 -19 5 -23 2 -23 -15 0 -12 6 -21 13 -21 11 0 13
-29 13 -137 -1 -153 12 -212 66 -291 53 -78 166 -109 245 -68 47 24 101 84
133 146 l28 55 8 -60 c15 -122 -21 -418 -61 -495 -67 -130 -195 -104 -253 53
-28 73 -37 127 -23 127 6 0 11 8 11 18 0 15 -7 17 -57 12 -59 -5 -78 -21 -45
-39 11 -6 23 -26 27 -47 10 -56 42 -135 74 -187 37 -58 91 -87 162 -87 126 0
203 93 247 300 22 106 21 462 -1 627 -21 148 -21 153 -2 153 8 0 15 9 15 20 0
23 -30 25 -120 6z"/>
<path d="M1170 1542 c0 -11 8 -22 17 -24 15 -3 17 -18 15 -143 -3 -145 13
-617 24 -718 6 -49 4 -57 -10 -57 -9 0 -16 -8 -16 -18 0 -16 6 -17 58 -11 31
4 69 8 85 8 20 1 27 6 27 21 0 13 -7 20 -19 20 -28 0 -32 44 -16 152 30 200
108 373 186 414 15 8 46 14 67 14 33 0 45 -6 71 -35 53 -60 79 -199 66 -351
-6 -80 -8 -84 -31 -84 -17 0 -24 -6 -24 -19 0 -15 10 -20 53 -25 28 -4 69 -10
90 -13 33 -5 37 -3 37 16 0 13 -6 21 -18 21 -16 0 -17 7 -10 83 7 82 -4 235
-21 293 -22 75 -71 143 -125 171 -16 8 -55 15 -86 16 -77 0 -135 -33 -182
-105 -36 -54 -87 -172 -89 -205 -1 -10 -5 0 -10 22 -4 22 -8 149 -8 283 -1
236 0 242 19 242 13 0 20 7 20 20 0 18 -7 20 -69 20 -38 0 -76 3 -85 6 -11 4
-16 0 -16 -14z"/>
<path d="M2530 1511 c0 -28 3 -31 30 -31 l30 0 0 -152 c0 -165 16 -557 26
-650 5 -52 4 -59 -15 -66 -13 -5 -17 -11 -12 -20 6 -11 27 -12 90 -7 70 7 81
10 81 26 0 12 -7 19 -19 19 -25 0 -29 18 -37 191 l-7 147 74 12 c94 15 145 38
199 86 58 52 80 103 80 184 0 114 -61 205 -172 256 -59 27 -73 29 -205 32
l-143 3 0 -30z m252 -43 c51 -15 126 -82 149 -133 54 -118 -13 -252 -146 -290
-95 -28 -90 -41 -93 213 l-2 222 26 0 c15 0 44 -5 66 -12z"/>
</g>
</svg>
